<?xml version="1.0" standalone="no"?><!DOCTYPE svg PUBLIC "-//W3C//DTD SVG 1.1//EN" "http://www.w3.org/Graphics/SVG/1.1/DTD/svg11.dtd"><svg t="1782642791997" class="icon" viewBox="0 0 1024 1024" version="1.1" xmlns="http://www.w3.org/2000/svg" p-id="8815" xmlns:xlink="http://www.w3.org/1999/xlink" width="256" height="256"><path d="M554.518261 536.338551H408.115942a18.550725 18.550725 0 0 0 0 37.101449h146.402319a18.550725 18.550725 0 0 0 0-37.101449zM509.996522 634.286377H408.115942a18.550725 18.550725 0 1 0 0 37.101449h101.88058a18.550725 18.550725 0 0 0 0-37.101449zM615.290435 342.001159H408.115942a18.550725 18.550725 0 0 0 0 37.10145h207.768116a18.550725 18.550725 0 0 0 0-37.10145zM615.290435 439.206957H408.115942a18.550725 18.550725 0 0 0 0 37.101449h207.768116a18.550725 18.550725 0 1 0 0-37.101449zM314.546087 421.991884l-43.186087 43.111884L250.434783 445.217391a16.027826 16.027826 0 0 0-22.26087 23.373913l32.278261 30.423189 2.30029 1.780869c0.593623 0 2.374493 1.261449 2.81971 1.409855a19.515362 19.515362 0 0 0 2.893913 0.816232 13.430725 13.430725 0 0 0 2.968116 0 14.321159 14.321159 0 0 0 3.116522 0l3.042318-0.890435c0.445217 0 2.30029-1.187246 2.819711-1.55826l2.374492-1.929276 54.242319-54.093913a16.027826 16.027826 0 0 0-22.706087-22.706087zM314.546087 315.807536l-43.186087 43.111884-20.925217-19.663768a16.027826 16.027826 0 1 0-22.26087 23.373913L260.674783 393.275362l2.300289 1.78087 2.819711 1.409855a20.702609 20.702609 0 0 0 2.893913 0.890435 20.108986 20.108986 0 0 0 2.968116 0 21.147826 21.147826 0 0 0 3.116521 0 27.529275 27.529275 0 0 0 3.042319-0.964638c0.445217 0 2.30029-1.187246 2.81971-1.484058a30.794203 30.794203 0 0 0 2.374493-2.003478l54.242319-54.093913a16.027826 16.027826 0 0 0-22.706087-22.706087zM314.546087 526.024348l-43.186087 43.111884-20.925217-19.663768a16.027826 16.027826 0 1 0-22.26087 23.373913l32.278261 30.348985 2.30029 1.78087a24.932174 24.932174 0 0 0 2.81971 1.409855 20.702609 20.702609 0 0 0 2.893913 0.890435 20.108986 20.108986 0 0 0 2.968116 0 21.147826 21.147826 0 0 0 3.116522 0 27.529275 27.529275 0 0 0 3.042318-0.964638c0.445217 0 2.30029-1.187246 2.819711-1.484058a30.794203 30.794203 0 0 0 2.374492-2.003478L337.252174 549.101449a16.027826 16.027826 0 0 0-22.706087-22.706087z" fill="#5398F7" p-id="8816"></path><path d="M883.533913 6.381449h-742.028985a133.565217 133.565217 0 0 0-133.565218 133.565218v742.028985a133.565217 133.565217 0 0 0 133.565218 133.565218h742.028985a133.565217 133.565217 0 0 0 133.565217-133.565218v-742.028985a133.565217 133.565217 0 0 0-133.565217-133.565218zM624.788406 881.15942H216.153043a59.362319 59.362319 0 0 1-59.362318-59.362319V292.136812a59.362319 59.362319 0 0 1 57.433043-59.362319A101.361159 101.361159 0 0 1 314.62029 144.844058h396.54029a101.361159 101.361159 0 0 1 101.286956 101.286956v375.986087a199.234783 199.234783 0 0 0-20.108985-1.113043 184.542609 184.542609 0 0 0-19.292754 1.038841V246.131014a62.033623 62.033623 0 0 0-61.885217-61.95942H314.62029a61.95942 61.95942 0 0 0-60.475362 48.602899h403.070144a59.362319 59.362319 0 0 1 59.362319 59.362319v345.191884a184.023188 184.023188 0 0 0-91.788985 243.830724z m289.391304-56.32a9.126957 9.126957 0 0 1-8.533333 9.126957l-18.847536 1.261449a95.128116 95.128116 0 0 1-5.268406 13.133913l12.911304 14.84058a9.126957 9.126957 0 0 1 0 12.466087l-29.681159 29.681159a9.126957 9.126957 0 0 1-12.466087 0l-14.246957-12.391884a100.544928 100.544928 0 0 1-12.985507 5.565218l-1.335652 19.515362a9.126957 9.126957 0 0 1-9.052754 8.533333h-41.776232a9.126957 9.126957 0 0 1-9.126956-8.533333l-1.261449-18.847536a99.728696 99.728696 0 0 1-13.059711-5.194203l-14.840579 12.837101a9.126957 9.126957 0 0 1-12.466087 0l-29.68116-29.681159a9.126957 9.126957 0 0 1-0.445217-12.466087l12.391884-14.246957a90.824348 90.824348 0 0 1-5.491015-12.985507l-19.589565-1.261449a9.201159 9.201159 0 0 1-8.533333-9.126957v-41.776232a9.201159 9.201159 0 0 1 8.533333-9.126956l18.847536-1.261449a94.237681 94.237681 0 0 1 5.268406-13.059711l-12.911304-14.840579a9.126957 9.126957 0 0 1 0-12.466087l29.681159-29.68116a9.201159 9.201159 0 0 1 12.54029 0.074203l14.246957 12.466087a91.195362 91.195362 0 0 1 12.985507-5.565217l1.335652-19.589565a9.126957 9.126957 0 0 1 9.052754-8.533334h41.776232a9.126957 9.126957 0 0 1 9.126956 8.533334l1.261449 18.847536a94.237681 94.237681 0 0 1 13.059711 5.268406l14.840579-12.911305a9.126957 9.126957 0 0 1 12.466087 0.445218l29.68116 29.681159a9.126957 9.126957 0 0 1 0.445217 12.466087l-12.391884 14.246957a90.824348 90.824348 0 0 1 5.491014 12.985507l19.589566 1.335652a9.126957 9.126957 0 0 1 8.533333 9.126956z" fill="#5398F7" p-id="8817"></path><path d="M870.251594 783.731014a79.322899 79.322899 0 0 0-8.755942-20.48 9.052754 9.052754 0 0 1 0.890435-10.685217l11.056232-12.688696-17.437681-17.437681-13.05971 11.427247a9.201159 9.201159 0 0 1-10.536812 1.03884 80.658551 80.658551 0 0 0-20.702609-8.310724 9.201159 9.201159 0 0 1-6.975072-8.236522l-1.113044-16.769855H779.130435l-1.113044 17.363478a9.201159 9.201159 0 0 1-6.752463 8.162319 81.623188 81.623188 0 0 0-20.48 8.755942 9.052754 9.052754 0 0 1-10.685218-0.890435L727.188406 723.923478l-17.437681 17.437681 11.427246 13.133913a9.201159 9.201159 0 0 1 1.038841 10.536812 80.13913 80.13913 0 0 0-8.310725 20.628406 9.052754 9.052754 0 0 1-8.236522 6.975072l-16.769855 1.113044v24.709565l17.363478 1.187246a9.126957 9.126957 0 0 1 8.162319 6.678261 79.322899 79.322899 0 0 0 8.755942 20.48 9.201159 9.201159 0 0 1-0.890435 10.759421l-11.056231 12.614492 17.437681 17.437681 13.05971-11.353043a9.052754 9.052754 0 0 1 10.536812-1.038841 84.368696 84.368696 0 0 0 20.702608 8.236522 9.201159 9.201159 0 0 1 6.975073 8.236522l1.113043 16.769855h24.709565l1.113044-17.289275a9.201159 9.201159 0 0 1 6.752464-8.236522 79.322899 79.322899 0 0 0 20.48-8.755942 9.201159 9.201159 0 0 1 10.75942 0.890435l12.614493 11.056231 17.437681-17.437681-11.427247-13.05971a9.201159 9.201159 0 0 1-1.03884-10.536811 79.61971 79.61971 0 0 0 8.310724-20.702609 8.978551 8.978551 0 0 1 8.236522-6.90087l16.769855-1.187246v-24.635362l-17.363478-1.187247a9.201159 9.201159 0 0 1-8.162319-6.752464z m-77.913043 62.553044a41.256812 41.256812 0 1 1 41.256811-41.256812 41.256812 41.256812 0 0 1-41.256811 41.256812z" fill="#5398F7" p-id="8818"></path><path d="M792.338551 782.024348a23.002899 23.002899 0 1 0 23.002898 23.002898 23.002899 23.002899 0 0 0-23.002898-23.002898z" fill="#5398F7" p-id="8819"></path></svg>