<?xml version="1.0" standalone="no"?><!DOCTYPE svg PUBLIC "-//W3C//DTD SVG 1.1//EN" "http://www.w3.org/Graphics/SVG/1.1/DTD/svg11.dtd"><svg t="1782634235538" class="icon" viewBox="0 0 1024 1024" version="1.1" xmlns="http://www.w3.org/2000/svg" p-id="12313" width="256" height="256" xmlns:xlink="http://www.w3.org/1999/xlink"><path d="M921.6 11.52H551.68c-56.5504 0-102.4 45.8496-102.4 102.4v198.4c0 56.5504 45.8496 102.4 102.4 102.4h369.92c56.5504 0 102.4-45.8496 102.4-102.4V113.92c0-56.5504-45.8496-102.4-102.4-102.4z" fill="#66E9FF" p-id="12314"></path><path d="M921.6 180.48H586.4576c-41.2288 0-78.4384-24.7296-94.4128-62.7456l-27.9296-42.1888C448.1408 37.5296 410.9312 12.8 369.7024 12.8H102.4C45.8496 12.8 0 58.6496 0 115.2v794.88c0 56.5504 45.8496 102.4 102.4 102.4h819.2c56.5504 0 102.4-45.8496 102.4-102.4V282.88c0-56.5504-45.8496-102.4-102.4-102.4z m-55.7568 643.84c0 28.2752-31.0016 51.2-69.2352 51.2H227.3792c-38.2336 0-69.2352-22.9248-69.2352-51.2s31.0016-51.2 69.2352-51.2h569.2288c38.2464 0 69.2352 22.9248 69.2352 51.2z" fill="#1AD4FF" p-id="12315"></path></svg>